<?xml version="1.0" encoding="UTF-8"?>
<svg width="25px" height="20px" viewBox="0 0 25 20" version="1.1" xmlns="http://www.w3.org/2000/svg" xmlns:xlink="http://www.w3.org/1999/xlink">
    <!-- Generator: Sketch 52 (66869) - http://www.bohemiancoding.com/sketch -->
    <title>Fill 8</title>
    <desc>Created with Sketch.</desc>
    <g id="desktop" stroke="none" stroke-width="1" fill="none" fill-rule="evenodd">
        <g id="desktop-HQ-house" transform="translate(-1205.000000, -1198.000000)" fill="#000000">
            <g id="Group-5" transform="translate(50.000000, 1198.000000)">
                <g id="Group-10" transform="translate(1155.000000, 0.000000)">
                    <path fill="white" d="M14.4712583,0.582731707 C14.0740161,0.982243902 14.0740161,1.6217561 14.4712583,1.98126829 L21.3301136,8.91980488 L1.30939579,8.91980488 C0.753062639,8.91980488 0.316047672,9.35931707 0.316047672,9.91882927 C0.316047672,10.4783415 0.753062639,10.9178537 1.30939579,10.9178537 L21.3301136,10.9178537 L14.4484618,17.8383415 C14.2500831,18.0383415 14.1705377,18.2778537 14.1705377,18.5578537 C14.1705377,18.8378537 14.2500831,19.0773659 14.4484618,19.2773659 C14.845704,19.676878 15.4815826,19.676878 15.8390521,19.2773659 L24.4294762,10.6378537 C24.8272034,10.2383415 24.8272034,9.59882927 24.4294762,9.23931707 L15.8618487,0.582731707 C15.4646064,0.223219512 14.8287278,0.223219512 14.4712583,0.582731707" id="Fill-8"></path>
                </g>
            </g>
        </g>
    </g>
</svg>
